<svg width="460" height="243" viewBox="0 0 460 243" fill="none" xmlns="http://www.w3.org/2000/svg">
<g clip-path="url(#clip0_7_137)">
<path d="M227.284 243C172.66 243 126.471 207.024 111.103 157.495C111.055 157.256 111.151 157.017 111.39 156.974C111.629 156.926 111.868 157.022 111.911 157.26C127.988 202.272 173.552 234.724 227.265 234.724C280.978 234.724 326.543 202.272 342.619 157.26C342.667 157.022 342.906 156.926 343.16 156.974C343.399 157.021 343.495 157.26 343.447 157.495C328.079 207.024 281.907 243 227.284 243Z" fill="white"/>
<path d="M172.694 57.5752C172.647 57.4892 172.359 57.2024 172.264 57.1355C171.929 56.9014 171.776 56.9155 171.504 56.9824C171.217 57.0493 171.169 57.1354 170.963 57.2023C170.724 57.2692 170.476 57.2692 170.236 57.1855C169.749 57.0326 169.428 56.41 169.055 55.9885C168.96 56.108 168.768 56.3422 168.768 56.3422C167.453 55.7692 166.119 55.5158 164.684 55.955C164.541 55.9887 164.302 55.8213 164.144 55.7687C163.623 56.8138 162.523 56.9823 161.548 57.1844C161.117 57.2704 160.687 57.4712 160.247 57.7072C160.008 57.8745 159.769 58.3983 159.52 58.5837C159.281 58.8035 159.013 58.7032 158.793 58.9373C158.066 59.7297 157.559 60.6399 157.545 61.4829C157.528 62.1405 157.306 62.663 156.617 62.9664C156.33 63.1002 156.01 63.3868 155.876 63.6745C155.135 65.1243 154.375 66.6077 153.768 68.1421C153.528 68.7658 153.433 69.6262 153.108 70.1991C152.586 71.1601 152.821 72.0195 153.012 72.9638C153.203 73.9416 153.753 76.1671 153.753 76.1671C150.697 76.234 145.858 76.4015 142.012 76.5878C141.978 76.099 141.018 74.5476 140.831 74.2614C140.64 73.9938 140.157 72.5247 141.118 71.5135C141.453 71.1264 142.519 69.5916 142.519 68.5971C142.552 66.1356 141.539 63.4383 141.304 61.4322C142.519 59.6789 141.256 57.909 141.352 56.122C141.352 56.0694 141.113 55.8543 141.017 55.7348C142.266 54.1502 142.72 51.5206 141.859 51.0312C139.023 54.5211 140.678 59.1737 138.942 63.0175C138.798 63.5403 138.559 64.029 139.085 64.602C139.573 65.1076 138.703 67.1476 138.378 66.8274C138.856 65.8664 137.517 65.0237 136.876 64.1473C136.685 63.8941 136.876 63.5908 136.876 63.3208C137.971 62.2083 138.497 61.0453 137.45 59.5954C137.163 59.1892 137.259 58.5332 137.163 58.0109C138.411 57.5221 139.104 56.6282 138.817 55.5157C138.531 54.3693 138.865 53.3578 139.296 52.3467C139.817 51.0989 140.377 49.8514 140.917 48.5703C141.252 47.744 141.491 46.952 140.9 46.227C140.805 46.1076 140.757 45.8875 140.805 45.8063C141.465 44.0023 142.354 42.3164 143.42 40.6645C144.094 39.4 144.869 38.2369 145.73 37.1072C133.803 46.9862 124.018 58.9389 117.018 72.375C116.922 72.5279 116.779 72.6091 116.635 72.6091C116.396 72.6091 116.205 72.4083 116.205 72.1694L116.239 72.002C125.719 50.8448 140.969 32.8907 160.352 20.0783C180.225 6.94568 203.387 4.57764e-05 227.308 4.57764e-05C251.229 4.57764e-05 274.391 6.94568 294.263 20.0783C313.646 32.8907 328.896 50.8448 338.377 72.002L338.411 72.1694C338.411 72.4035 338.22 72.6091 337.981 72.6091C337.837 72.6091 337.694 72.523 337.598 72.3892C336.077 69.4221 334.394 66.5731 332.604 63.7915C331.763 63.1339 330.935 62.5269 330.462 61.4818C330.079 60.6049 328.521 60.3189 327.832 59.5433C327.124 58.751 326.263 58.0091 325.79 57.0816C324.829 55.1596 323.194 54.081 321.305 53.0861C319.416 51.8216 317.914 50.0009 315.923 48.703C315.732 48.6026 315.589 48.8702 315.446 49.0566C315.732 50.4391 316.794 51.6022 318.076 52.4786C319.29 53.5744 320.031 55.0749 321.652 55.85C323.154 56.7604 324.335 58.1428 325.65 59.3227L325.602 59.4088L325.363 59.7289C324.981 59.4421 324.569 59.1563 324.182 58.8695L324.086 58.922C324.277 59.3617 324.326 59.9336 324.641 60.119C325.602 60.7593 325.77 61.7708 325.636 62.5125C325.619 62.632 325.602 62.7326 325.588 62.833C325.554 62.9668 325.54 63.1006 325.54 63.2391V63.2916C325.523 63.392 325.523 63.4587 325.523 63.5782C325.523 64.101 325.619 64.59 325.762 65.0789C325.81 65.3465 325.858 65.6183 325.954 65.905C325.045 65.2981 324.117 64.7419 323.238 64.101C323.046 63.9481 323.046 63.5448 322.95 63.2413V63.105C323.333 62.4981 324.333 62.8851 325.16 62.7513C324.333 59.6327 321.516 58.3685 319.172 56.4297C318.077 55.5361 317.077 54.5414 316.116 53.5298C315.355 52.7035 314.547 51.7765 313.419 51.507C313.18 51.8081 312.94 52.0465 312.778 52.4006C312.587 52.7734 312.682 53.7491 312.29 53.665C311.396 53.4787 310.081 52.7713 309.287 53.3639C309.096 53.8035 309.271 54.6453 309.718 54.9655C310.832 55.8926 310.148 56.7861 309.287 57.4943C308.666 58.0845 308.699 59.0955 308.699 59.8878C308.699 60.208 308.651 60.6969 308.795 60.8321C310.076 61.6584 309.383 62.9224 309.603 63.9847C309.586 64.8611 309.507 66.227 308.455 66.3451C305.672 66.5792 304.591 69.076 304.104 68.3678C303.329 67.6768 303.09 67.4574 302.583 66.9685C301.957 66.3449 301.421 66.0414 300.527 66.7009C300.096 67.0211 299.331 66.9542 298.671 67.0546C298.48 66.4477 298.384 65.925 298.193 65.4868C297.954 64.8967 297.906 64.2563 296.978 64.1043C296.692 64.0706 296.252 63.9848 296.318 63.1432C296.558 60.3783 295.391 58.2713 293.77 56.1304C293.626 55.9106 293.009 55.6905 292.962 55.422C292.818 54.7477 293.483 55.1689 293.942 54.8492C294.372 54.5481 293.909 53.9892 295.477 54.1073C297.906 54.2936 300.369 53.8062 303.119 53.5844C301.617 51.3929 301.383 49.724 300.857 49.1343C300.427 48.6115 298.834 47.6003 297.514 46.9088C297.18 46.7416 296.706 46.6746 296.3 46.689C295.305 46.7227 294.464 46.5025 293.89 45.6266C294.751 44.3114 296.219 45.4594 297.4 44.8511C296.969 44.3971 296.133 43.7891 296.118 43.435C296.673 43.1817 297.653 43.7027 298.227 43.8222C298.562 43.266 298.868 42.861 299.188 42.3387C299.045 42.0711 298.481 41.4624 298.6 41.2431C299.901 39.9113 300.035 40.4505 299.408 38.6633C299.647 38.4769 299.963 39.1861 300.302 39.5736C300.398 39.1197 301.111 38.6633 299.628 37.8203C299.533 37.7343 299.963 37.567 300.216 37.3806C300.408 37.2468 300.2 37.0273 300.408 36.9413C300.886 36.7549 301.488 36.841 301.641 36.6737C300.374 35.662 299.399 34.6002 298.165 33.6731C297.271 33.0662 296.831 32.3751 297.438 31.6836C298.132 32.0707 298.839 32.4254 299.513 32.8134C299.944 33.2865 299.609 33.8079 300.408 34.0946C300.599 33.9608 301.603 33.8939 301.656 33.6885C301.751 33.4543 300.981 32.9802 300.895 32.812C300.513 32.1544 298.787 30.8396 298.198 30.8224C297.457 30.7887 296.176 29.912 295.616 29.3892C295.807 29.5565 295.281 29.7764 295.281 29.9456C294.851 31.665 292.8 31.0074 292.144 29.8595C292.001 29.6397 291.518 29.8069 291.351 29.6061C290.189 28.291 290.237 28.5945 288.821 27.8022C288.726 27.7161 288.787 27.4822 288.725 27.0941C288.63 26.0825 287.276 25.5094 287.276 25.2566C287.276 24.989 288.405 25.1373 288.544 23.4027C281.678 19.7273 274.457 16.6929 267.001 14.3328C266.021 14.4666 265.06 14.6863 264.252 15.0576C262.87 15.7825 261.196 15.7152 259.627 15.4112C258.867 15.2774 258.546 15.5976 258.212 16.2203C257.925 16.743 257.15 16.7766 256.677 17.2149L257.012 17.9229C256.629 18.6311 256.151 19.0528 255.644 19.9799C254.195 19.4237 252.961 18.7153 251.46 18.4625C249.805 18.1949 248.509 17.4847 247.429 16.2542C246.267 14.973 244.579 14.029 243.551 12.613C243.264 12.2259 243.216 11.6012 243.311 11.163C243.407 10.8237 243.871 10.6234 244.325 10.5053C244.612 10.4716 244.966 10.6057 245.253 10.5914C245.54 10.5576 246.281 9.76507 246.587 9.6303C242.891 9.10751 239.164 8.72011 235.419 8.48404C236.38 8.71819 237.074 9.22559 237.514 10.1192C237.007 10.1023 236.553 10.0666 236.113 10.0332L236.079 10.2341C238.508 11.2959 242.186 12.594 243.012 13.4031C243.06 13.6229 242.204 13.8429 240.262 14.3977C239.784 14.498 239.081 13.5379 236.198 12.5095C236.102 12.4758 235.71 12.7296 235.719 12.7439C235.815 13.0497 235.959 13.4014 236.207 13.5868C237.135 14.1937 238.13 14.7672 239.225 15.4076C238.617 15.8616 237.422 15.508 237.991 16.7901C236.609 16.0312 235.395 15.3739 234.18 14.7163L234.084 14.8501C234.759 15.4064 235.418 15.9294 236.093 16.4689C236.045 16.5693 235.997 16.655 235.901 16.7697C233.792 16.3492 231.803 15.5054 229.76 14.8144C229.521 14.714 228.967 14.0053 228.78 13.8027C228.78 13.8027 226.858 12.7403 225.945 12.4708C225.036 12.2032 223.902 12.0314 222.755 12.084C221.607 12.1366 221.354 11.6968 221.354 11.6968C221.354 11.6968 221.736 10.9886 222.301 10.9385C222.855 10.9385 224.323 11.3256 225.203 11.3781C226.097 11.4785 227.413 11.598 227.413 11.598C227.317 11.2109 227.269 11.0582 227.221 10.8054C228.182 10.6859 229.144 10.5524 230.191 10.4185C229.952 9.89575 230.143 9.01917 229.062 9.76083C228.871 9.89463 228.369 9.62711 227.795 9.52676C228.13 9.30694 228.283 9.22549 228.436 9.10603C228.101 9.05346 227.694 9.02035 227.408 8.88654C227.073 8.71929 226.815 8.4993 226.566 8.22882C222.722 8.26251 218.89 8.44881 215.078 8.80196C215.565 10.0664 217.153 10.1167 217.961 11.4314C216.679 11.245 215.398 10.892 214.15 10.7572C213.442 10.7741 212.529 11.1968 211.854 11.1299C211.376 11.0773 211.061 10.0003 211.013 10.0343C211.567 9.49475 212.6 9.24176 213.676 8.93831C211.195 9.19159 208.734 9.52854 206.288 9.89937C199 11.3827 196.857 13.5407 195.829 14.5858C195.829 14.5858 197.13 15.2941 197.55 15.5636C197.216 16.1199 196.943 16.6088 196.709 16.9968C197.837 17.3505 200.826 18.3288 201.685 18.885C203.168 21.2113 206.037 21.043 208.399 21.8353C207.878 22.577 207.758 23.3693 207.304 24.0607C207.208 24.2137 207.208 24.5148 207.304 24.7017C207.591 25.3086 207.639 25.7467 208.012 26.3536C208.107 26.4875 208.346 26.7074 208.499 26.6931C211.856 26.6071 211.636 25.5971 212.143 22.9167C213.779 22.6968 217.828 22.8308 218.25 20.8768C218.298 19.781 217.136 18.7692 216.294 18.4997C216.342 18.3993 216.438 18.2655 216.486 18.146C217.108 18.1123 218.695 17.4884 218.896 17.2695C218.609 16.8825 218.991 16.8302 218.465 16.2075C219.039 16.088 219.326 16.0879 219.46 15.7018C219.493 15.6015 219.46 15.329 219.412 15.1622C219.378 15.0619 219.395 14.9423 219.446 14.8611C219.541 14.7607 219.637 14.694 219.828 14.7083C221.517 14.8947 223.271 15.1623 224.94 15.568C225.7 15.7878 226.628 16.158 227.049 16.7482C227.909 17.9787 229.105 17.9283 230.185 18.367C229.157 19.4627 229.803 20.575 230.86 21.2665C233.17 22.9357 235.618 21.7398 237.692 20.5924C238.419 21.6714 240.461 23.5428 241.269 24.5205C241.269 24.5205 241.03 25.1782 241.996 26.7963C243.01 28.4655 245.793 29.2069 247.714 30.0327C247.121 30.6563 247.428 30.8923 250.196 32.1907C250.149 32.6447 250.18 33.118 249.862 33.388C249.384 33.8277 248.661 34.0116 248.193 34.1296C247.466 34.3494 246.777 34.182 246.204 34.0957C245.362 33.9619 244.535 33.9093 243.707 34.2295C242.053 34.8703 240.504 34.6836 238.849 34.2127C236.367 33.5045 233.873 32.8979 231.359 32.3249C230.331 32.0716 229.269 32.0236 228.322 32.7978C228.035 33.0319 227.361 32.9316 226.854 33.0176C225.553 33.2183 222.263 34.4003 221.135 34.9733C224.105 34.2483 227.141 33.5231 230.852 33.6578C231.479 33.6915 232.067 33.8252 232.908 34.3155C233.148 34.4493 233.415 34.7551 233.339 35.0064C233.305 35.1928 232.86 35.4126 232.631 35.4126C231.804 35.4795 230.977 35.4465 230.149 35.4465C230.132 35.5469 230.101 35.6329 230.101 35.7141C230.862 35.8001 231.603 35.9003 232.55 36.0007C232.009 36.2874 231.555 36.5065 231.082 36.7765C231.464 38.5298 232.884 39.2374 234.673 39.5747C235.227 39.6751 236.074 40.0146 236.648 40.2153C237.628 39.7097 238.556 39.2207 239.483 38.6979C239.723 38.5641 240.038 38.6643 239.77 38.9991C239.211 39.5553 239.675 39.5218 239.531 39.7913C239.77 40.0111 240.072 40.2642 240.339 40.4993C240.435 40.5854 240.435 40.6667 240.292 40.7527C239.096 40.5664 239.13 41.0728 237.676 40.853C237.58 41.0059 238.058 41.2928 237.293 41.2402C234.596 41.2233 231.878 40.8006 229.263 41.7291C228.709 41.9298 228.102 42.0685 227.729 41.409C227.585 41.1892 227.346 40.8859 227.394 40.7177C227.489 40.4501 227.824 40.1785 228.087 40.1278C228.981 39.9271 229.909 39.8265 230.856 39.4366C230.808 38.8803 228.9 39.1833 227.193 39.169C226.5 39.7085 224.109 39.6232 222.588 39.4894C220.733 39.2553 218.423 39.9622 217.493 41.3605C217.35 41.5947 217.541 41.9841 217.78 42.1528C218.019 42.3726 218.875 42.4396 218.827 42.743C214.863 42.7768 213.801 41.8835 211.641 42.0857C211.641 42.1526 211.928 42.2385 211.832 42.4583C212.119 42.5108 212.421 42.5588 212.693 42.6592C212.932 42.7452 213.52 42.7784 213.927 42.8261C214.023 42.8787 214.023 42.9457 213.927 42.9935C213.32 42.9935 212.392 43.0461 212.158 42.9935C211.617 42.8071 211.096 42.9935 210.709 42.9935C210.278 43.5665 209.561 43.5665 209.207 43.9206C208.825 44.2217 208.466 45.4212 207.806 45.2864C207.789 44.6962 207.184 44.5447 206.965 44.2747C206.869 44.3416 206.725 44.3942 206.63 44.442C207.304 46.5494 205.109 46.4315 204.521 47.6453C204.282 47.8125 204.33 47.478 204.234 47.4254C204.473 47.1244 204.473 46.8857 204.616 46.7342C204.282 46.328 204.616 45.4193 204.616 44.8296C204.521 44.6623 204.186 44.7101 204.095 45.0494C203.809 46.0271 203.421 46.8192 203.617 47.8309C204.158 48.9266 203.634 50.0227 202.403 50.3261C202.068 50.4265 201.422 50.326 201.594 51.017C201.594 51.0339 201.116 51.2511 200.834 51.2511C199.232 51.2342 198.457 51.5044 197.645 52.2121C195.383 51.9923 193.867 53.7125 191.858 54.1842C190.778 54.4375 189.716 55.2801 189.042 56.1231C187.66 58.2305 188.707 61.1805 188.267 63.5406C188.076 64.603 186.933 65.7828 186.833 66.609C186.833 66.609 186.641 66.6261 186.498 66.6429C186.163 66.6598 185.264 66.9631 184.963 66.5569C185.345 65.8152 184.375 64.5001 184.088 63.3704C183.801 62.3085 183.801 60.8922 184.279 59.8805C184.566 59.2904 184.566 59.1556 183.992 58.65C183.849 58.5306 183.753 58.3631 183.705 58.2293C183.322 57.167 182.931 56.8639 181.764 57.3532C181.209 57.6208 180.736 57.5204 180.348 56.8643C180.061 56.3912 179.267 56.0885 178.66 55.819C177.967 55.5514 177.092 56.2395 176.398 55.3301C176.159 55.029 174.17 55.5979 173.462 55.6695C173.367 55.7221 173.702 56.3271 173.271 56.5631C173.176 56.6492 172.984 56.6968 173.032 56.8497C173.032 56.9023 173.271 57.3038 173.175 57.4061C172.984 57.5733 172.888 57.5734 172.888 57.5734L172.694 57.5752ZM305.812 36.0134C306.472 34.7323 304.985 34.0413 304.057 33.4511C303.77 33.2838 303.316 33.3841 302.776 33.3315C303.063 33.7377 303.158 33.9552 303.364 34.208C303.125 34.3083 302.886 34.3944 302.671 34.4756C302.766 34.7767 302.814 35.0486 302.957 35.4873C302.317 35.3201 301.877 35.1859 301.422 35.0808L301.327 35.2675C301.968 35.5733 302.608 35.8908 303.335 36.2282C303.622 35.4526 304.043 35.2337 304.75 36.0083C304.894 36.1947 305.745 36.1472 305.812 36.0134Z" fill="white"/>
<path fill-rule="evenodd" clip-rule="evenodd" d="M226.93 9.00596C227.217 10.3717 224.955 9.62966 224.061 9.54555C225.022 8.48324 226.035 9.05661 226.93 9.00596Z" fill="white"/>
<path d="M249.349 35.2713C247.259 35.558 247.341 36.3502 247.107 36.8897C247.833 36.9901 248.995 36.756 249.655 36.8372L249.751 37.0713C249.607 37.1382 249.512 37.2052 249.158 37.3724C250.779 37.8952 252.228 38.3335 253.729 38.7717C253.586 39.2114 252.988 39.7834 252.854 40.1375C253.681 40.6106 254.356 40.3383 254.404 40.4769C254.499 40.6107 253.457 41.0671 253.069 41.3366L253.165 41.5036C253.595 41.3698 254.547 40.9811 254.686 41.0643C255.068 41.351 254.207 41.4513 254.011 42.0085C254.49 41.9416 254.939 41.7742 255.173 41.7216C255.269 41.8554 255.078 41.9749 255.317 42.1613C254.542 43.5945 254.624 43.6111 253.715 42.9029C253.62 42.8169 254.05 42.516 253.682 42.2794C253.538 42.1934 253.442 42.5135 253.108 42.652C252.869 42.5517 252.63 42.4991 252.333 42.4322C252.429 42.1455 253.074 41.8759 252.668 41.4544C251.386 41.6551 250.052 41.7745 248.89 41.722C248.603 41.6551 248.699 41.4544 248.873 41.4019C249.567 41.4187 250.576 41.2346 250.528 41.1343C248.959 40.6612 247.644 40.3588 246.21 39.9205C244.861 39.4809 242.566 39.8201 242.045 38.9088C241.567 38.0658 243.714 36.4814 245.99 35.217C246.478 34.9159 247.826 34.6606 249.146 34.6099C249.289 34.6768 249.014 35.1365 249.349 35.2713Z" fill="white"/>
<path fill-rule="evenodd" clip-rule="evenodd" d="M315.36 53.8152C315.838 55.0964 316.608 55.8553 316.594 56.597C315.532 56.0742 314.973 55.4844 314.992 54.7762C315.008 54.4752 315.36 54.4895 315.36 53.8152Z" fill="white"/>
<path d="M231.856 37.581C232.047 37.5141 232.334 37.1604 232.496 37.0247C233.156 38.6093 234.873 38.0024 236.04 38.778C235.452 38.9118 234.925 39.0456 234.385 39.1841C232.951 38.5605 232.817 38.4575 231.856 37.581Z" fill="white"/>
<path d="M233.221 33.4174C234.623 33.1641 236.344 33.9402 237.626 35.1875L237.482 35.4883C235.541 34.9655 234.13 34.041 233.221 33.4174Z" fill="white"/>
<path d="M281.132 40.5815C281.323 40.0085 281.227 39.4018 281.036 39.1318C280.395 38.7448 280.462 38.7253 279.821 38.3392C279.855 38.2389 279.726 37.7999 279.726 37.6819C280.281 37.4143 280.419 37.2279 280.787 36.9235C281.361 36.1986 280.548 36.1311 280.692 35.9289C281.385 35.0525 282.327 34.5299 283.221 34.3105C283.652 34.6976 284.082 35.086 284.637 35.5749C284.62 35.6086 284.493 35.9621 284.398 36.1313C284.971 36.6708 285.866 37.2942 286.167 38.8281C284.732 40.0926 283.484 41.2727 282.643 41.7281C282.212 41.9957 281.596 41.9812 281.294 41.7616C281.103 41.5944 280.94 41.2887 281.132 40.5815Z" fill="white"/>
<path d="M284.979 34.7486C284.883 34.481 284.835 34.2427 284.739 33.9899C284.452 34.076 284.357 33.9042 283.811 34.0906C284.098 33.585 284.146 33.5678 284.319 33.2983L284.031 33.4511C283.792 33.1118 283.649 32.7093 283.372 32.4565C282.989 32.1028 282.478 31.8836 282.176 31.7149C282.511 31.108 282.851 30.5685 283.204 30.0123C283.711 30.0123 284.404 30.0124 285.28 29.9955C284.519 31.1754 284.897 31.4621 286.073 31.2767C287.087 31.1237 287.709 31.4965 287.642 32.5917C287.608 32.931 287.69 33.2827 287.69 33.384C289.985 35.0532 292.768 35.8788 294.235 38.3402C295.264 37.3792 296.899 38.173 296.43 40.6163C296.717 40.7167 297.004 40.8507 297.291 40.9893C297.274 41.1088 297.274 41.2232 297.274 41.2423C296.844 42.0179 293.329 41.883 291.876 42.5071C291.101 42.8273 291.589 41.563 289.294 42.6741C290.308 40.4486 290.776 41.1064 291.316 40.6342C290.556 40.4813 289.681 40.2804 288.533 40.0104C289.361 39.5564 290.068 38.4766 288.868 38.392C288.677 38.3752 288.677 37.9524 288.533 37.6504H289.815C289.91 37.5644 289.958 37.4641 290.054 37.4163C289.48 36.4553 289.107 36.1516 288.232 35.3932C287.405 35.3595 285.87 36.371 286.09 34.2134C285.612 34.4333 285.313 34.5628 284.979 34.7486L284.93 34.753Z" fill="white"/>
<path d="M317.992 61.4017C317.705 59.7664 316.725 59.2435 316.204 58.131C316.108 57.9303 316.538 57.5243 316.777 57.1367C317.873 58.2999 318.719 59.8171 318.834 60.694C318.881 61.2168 318.547 60.78 318.279 61.5202C318.183 61.4865 317.992 61.4875 317.992 61.4017Z" fill="white"/>
<path d="M221.768 195.813C221.768 195.383 220.873 195.622 220.266 195.717C220.075 195.735 220.773 196.1 218.477 197.557C218.812 197.557 220.419 197.591 219.878 197.844C218.037 199.325 216.215 200.305 214.227 201.519C214.036 201.614 213.74 201.662 213.587 201.615C212.606 200.974 211.358 201.614 210.383 200.3C210 199.746 209.369 199.823 209.12 199.66C209.025 199.627 208.599 198.647 208.446 198.733C208.398 198.781 207.939 199.02 207.968 199.163C208.016 199.354 208.303 199.703 208.303 199.703C208.781 200.224 209.536 200.797 209.924 201.304C209.971 201.4 209.889 201.825 209.636 202.231C209.541 202.422 209.541 202.905 209.78 203.344C209.876 203.583 210.354 203.488 210.287 203.918C210.144 204.792 208.451 206.025 207.451 205.973C206.184 205.956 204.922 205.829 203.674 205.686C202.612 205.543 201.699 206.326 201.986 207.387C202.177 207.994 201.952 208.18 201.507 208.147C200.36 208.051 199.312 207.813 198.284 207.201C198.141 208.955 198.301 209.141 199.752 209.408C199.992 209.456 200.183 209.949 200.494 210.317C199.466 210.651 198.084 210.412 198.37 211.784C198.466 212.118 198.227 212.524 198.132 212.878C197.524 213.117 196.362 213.117 196.142 213.518C195.855 214.966 197.376 214.766 198.418 215.458C198.466 215.889 198.466 216.3 198.37 216.472C198.036 216.854 197.189 217.432 196.783 217.738C196.816 218.225 196.878 218.598 196.687 218.799C196.4 218.847 195.96 219.038 195.659 219.086C195.85 220.046 196.486 220.672 196.721 221.059C196.687 221.25 195.96 220.868 195.487 220.82L197.007 221.814C197.883 222.321 197.514 222.488 198.342 223.248C199.116 223.941 199.504 224.074 199.47 224.16C199.423 224.304 199.614 225.035 197.242 224.256C194.425 223.344 193.698 222.99 190.393 219.788C190.393 219.788 188.624 218.202 187.423 214.866C187.328 214.627 187.041 214.325 187.184 214.125C187.28 213.981 187.471 213.934 187.844 213.981C187.81 213.647 187.878 213.121 187.701 212.987C187.414 212.748 186.433 213.274 186.385 212.605C186.768 211.611 186.94 211.831 187.112 210.87C187.16 210.584 186.825 210.245 186.825 208.849C186.825 208.61 187.208 208.514 187.38 208.658C187.667 209.265 187.901 210.106 188.327 210.493C187.849 207.592 188.231 208.438 187.944 206.312C187.61 205.882 187.466 206.12 187.356 206.12V208.194C186.515 208.099 186.209 207.812 186.395 206.527C186.429 206.336 186.73 206.479 186.412 205.867C186.125 205.346 186.22 204.534 186.22 204.099C186.78 202.598 186.268 201.217 185.647 199.937C184.819 198.35 185.664 198.842 185.838 198.183C186.68 195.416 188 192.704 187.22 189.619C186.981 188.744 186.512 187.731 187.363 186.838C187.459 186.742 187.411 186.455 187.363 186.283C186.857 184.802 187.555 183.502 187.87 182.121C188.062 181.194 188.157 180.233 188.253 179.287C188.444 177.734 188.635 176.152 188.492 174.599C188.525 173.505 188.458 172.979 188.587 172.153C188.683 171.426 189.248 170.738 189.281 169.993C189.315 168.306 189.185 166.619 189.09 164.935C189.073 164.648 188.994 164.276 188.803 164.061C186.727 161.566 184.652 159.104 181.836 157.452C179.813 156.258 178.885 154.198 177.785 151.737C177.594 151.355 177.403 150.81 177.145 150.237C194.199 149.697 211.221 149.394 228.208 149.411C240.979 149.411 255.858 149.497 268.645 149.798C268.549 151.551 268.453 153.574 268.453 153.911C268.262 156.339 267.846 156.472 266.785 158.699C265.871 160.467 264.355 161.261 263.021 162.274C260.946 163.86 258.517 164.935 256.627 166.775C255.953 167.315 255.346 168.156 254.585 168.376C251.396 169.202 251.869 172.218 250.707 174.512C249.626 176.959 248.225 178.034 246.762 180.531C246.121 181.406 244.907 181.945 243.993 182.605C243.353 184.172 241.904 184.746 240.637 185.573C239.475 185.907 238.193 185.143 236.993 185.014C235.864 184.823 234.463 185.621 234.057 186.447C231.78 186.065 230.379 187.068 228.456 187.948C226.988 188.569 226.634 189.888 226.668 191.202C226.702 192.215 226.285 192.789 225.572 193.176C224.071 194.003 222.99 195.197 221.795 196.43C221.288 196.951 220.882 197.003 220.815 197.003C220.797 197.02 220.405 197.055 221.768 195.813Z" fill="white"/>
<path d="M403.621 147.346C402.206 143.62 400.771 139.928 399.337 136.236C391.475 135.595 383.597 135.005 375.736 134.449L371.432 144.918C366.66 144.598 361.884 144.277 357.11 144.007C365.259 125.497 373.39 107.003 381.537 88.5939C383.527 88.7468 385.535 88.8806 387.526 89.0336C389.534 89.1865 391.524 89.3202 393.532 89.4875C401.663 109.144 409.794 128.852 417.925 148.576C413.167 148.136 408.396 147.75 403.621 147.346ZM380.477 122.901C385.182 123.255 389.89 123.609 394.597 123.98C392.234 117.894 389.891 111.825 387.528 105.739C385.184 111.471 382.823 117.186 380.477 122.901Z" fill="white"/>
<path d="M162.657 141.243C154.83 122.463 147.002 103.767 139.174 85.088C144.168 84.8682 149.178 84.6677 154.171 84.4813C158.69 96.2484 163.214 108.016 167.734 119.783C172.258 107.746 176.777 95.7087 181.297 83.6887C186.308 83.5692 191.301 83.4688 196.312 83.3828C188.468 102.517 180.64 121.702 172.813 140.937C171.125 140.99 169.422 141.023 167.734 141.071C166.046 141.124 164.363 141.195 162.657 141.243Z" fill="white"/>
<path d="M13.5131 128.548C13.5131 136.674 16.5497 140.484 23.6518 139.759C30.7707 139.051 33.8073 134.668 33.8073 126.542V92.3032C38.3119 91.8636 42.8322 91.4599 47.3367 91.0724V125.531C47.3367 141.378 39.4245 150.414 23.6518 151.965C7.89538 153.532 0.000488281 146.064 0.000488281 130.218V95.7592C4.50506 95.2703 9.00904 94.7814 13.5131 94.326" fill="white"/>
<path d="M335.098 106.919C343.903 110.544 355.948 114.961 355.948 126.711C355.948 138.731 347.362 145.07 332.348 144.328C323.492 143.888 314.23 138.613 311.598 137.028C311.503 136.975 311.407 136.928 311.311 136.861V123.374C311.598 123.541 311.852 123.694 312.119 123.897C320.2 129.005 326.88 131.888 332.329 132.562C338.824 133.388 341.844 131.45 341.844 127.555C341.844 125.937 340.495 124.336 337.573 122.902C335.904 122.059 333.896 121.233 331.77 120.356C322.323 116.53 310.582 112.787 310.582 99.7222C310.582 88.1742 320.771 83.42 330.876 83.9088C338.602 84.2625 347.813 88.1572 352.132 90.6691C352.228 90.7216 352.323 90.7886 352.419 90.8364V104.323C352.132 104.156 351.878 103.984 351.611 103.8C348.947 102.097 339.566 96.4667 330.878 96.0621C326.507 95.8614 324.62 97.4445 324.62 99.4841C324.62 100.934 326.021 102.654 328.904 104.154C330.607 105.064 332.801 105.958 335.098 106.919Z" fill="white"/>
<path d="M292.131 119.04C296.616 126.525 301.089 134.011 305.576 141.513C300.516 141.326 295.437 141.159 290.377 141.024C286.412 134.129 282.448 127.251 278.466 120.406C275.377 120.339 272.293 120.272 269.205 120.219V140.5C264.768 140.414 260.332 140.366 255.895 140.314V83.2818C266.085 83.3822 276.273 83.6021 286.463 83.8721C297.074 84.1588 303.113 91.4078 303.113 102.315C303.113 112.97 297.276 117.287 292.131 119.04ZM269.138 108.319C273.289 108.419 277.455 108.505 281.604 108.586C287.829 108.753 289.077 105.282 289.077 102.348C289.077 99.4152 287.81 95.858 281.604 95.7063C277.454 95.5868 273.288 95.5057 269.138 95.4197" fill="white"/>
<path d="M120.095 143.047C120.061 124.031 120.047 105.031 120.047 86.015C124.533 85.7617 129.038 85.5421 133.526 85.3576V142.372C129.055 142.592 124.565 142.812 120.095 143.047Z" fill="white"/>
<path d="M215.206 117.236V128.161C225.412 128.075 235.601 128.075 245.807 128.161V140.197C231.215 140.097 216.623 140.145 202.048 140.331C202.014 121.315 202 102.316 202 83.2995C216.491 83.1131 230.999 83.0654 245.489 83.1657V95.1352C235.401 95.0683 225.314 95.0683 215.226 95.1352V105.216C222.075 105.164 228.923 105.149 235.773 105.164V117.218C228.923 117.201 222.055 117.219 215.206 117.236Z" fill="white"/>
<path d="M95.4313 87.4311C99.9024 87.1635 104.372 86.8916 108.842 86.6388V143.671C105.184 143.871 101.538 144.091 97.8772 144.328L97.7338 144.108C89.1306 133.218 80.527 122.378 71.9405 111.572V146.131C67.4694 146.471 62.9994 146.823 58.5293 147.177V90.1447C62.8665 89.8054 67.2003 89.4536 71.5356 89.133L71.6789 89.3196C79.5911 99.2323 87.5028 109.212 95.4317 119.209" fill="white"/>
<path d="M423.595 92.0672C428.066 92.4733 432.519 92.9101 436.99 93.3483V138.428C444.665 139.186 452.341 139.978 460 140.839V152.791C447.904 151.458 435.792 150.212 423.662 149.099C423.646 130.099 423.595 111.083 423.595 92.0672Z" fill="white"/>
</g>
<defs>
<clipPath id="clip0_7_137">
<rect width="460" height="243" fill="white"/>
</clipPath>
</defs>
</svg>
