<svg width="597" height="79" viewBox="0 0 597 79" fill="none" xmlns="http://www.w3.org/2000/svg">
<g clip-path="url(#clip0_7_227)">
<path d="M0 54.02V0.019989L11 0.039989C10.69 16.63 13.94 31.68 20.79 47.09C13.52 50.26 6.82 52.59 0 54.02Z" fill="white"/>
<path d="M0 77.02V59.02C8.35 58.77 17.06 57.54 25.33 56.01C30.16 63.76 35.21 70.37 41.07 77.01L0 77.02Z" fill="white"/>
<path d="M430.73 59.31C423.06 70.32 411.11 76.65 397.81 76.75L358.97 77.04V0.0100098L399.48 0.41001C412.51 0.54001 423.83 7.67001 430.91 18.03C438.06 30.98 438.23 46.05 430.73 59.31ZM418.12 37.49C417.67 25.14 409 15.42 396.87 15.26L376.98 14.99V62.06L396.88 61.81C409.83 61.65 418.61 50.66 418.12 37.49Z" fill="white"/>
<path d="M167.42 76.41C160.93 76.99 154.96 77.01 148.32 76.76L133.68 55.48H117.47L117.49 76.8H99.76L99.75 0.0100098H135.08C141.13 0.0200098 147.27 1.92001 152.61 4.23001C161.86 9.54001 166.72 18.43 166.29 29.08C165.88 39.22 160.58 48.03 150.63 52.08L167.42 76.4V76.41ZM135.38 40.83C143.77 40.7 148.3 34.27 148.14 27.51C147.98 20.57 142.78 14.98 134.92 14.91L117.46 14.76V41.11L135.38 40.83Z" fill="white"/>
<path d="M576.06 65.56C568.53 72.79 559.17 76.79 548.93 76.85L514.97 77.06V7.76999L550.93 8.04999C561.14 8.12999 570.14 13 576.87 20.15C587.23 33.54 587.25 52.24 576.06 65.56ZM568.09 41.52C567.74 30.46 560.32 21.72 549.63 21.46L530.96 21.01V63.6L549.26 63.28C560.72 63.08 568.46 53.22 568.09 41.53V41.52Z" fill="white"/>
<path d="M335.74 76.63L319.48 76.73L319.5 48.51H288.46L288.48 76.75L272.23 76.7L272.21 7.86001L288.46 7.79001L288.47 34.79H319.49L319.5 7.80001L335.75 7.86001L335.74 76.63Z" fill="white"/>
<path d="M486.42 62.35L454.28 62.26L448.35 76.96L431.65 76.94L462.49 7.76999H478.39L509.21 76.74L492.25 77.13L486.42 62.36V62.35ZM481.04 49.77L470.37 23.9L459.63 49.78H481.04V49.77Z" fill="white"/>
<path d="M219.15 55.24C223.41 61.7 230.2 64.21 236.68 64.43C243.73 64.67 249.76 61.82 254.76 56.15L265.28 65.75C257.95 75.06 247.25 78.15 236.03 78.22C216.76 78.34 200.84 65.28 199.02 46.09C197.07 25.47 211.37 8.63 232.02 6.73C244.59 5.57 256.94 9.04 265.23 18.82L254.82 28.48C245.72 18.14 229.79 17.35 220.61 27.64C213.95 35.11 213.55 46.76 219.14 55.24H219.15Z" fill="white"/>
<path d="M70.14 0.08C60.82 18.03 46.58 32.33 28.88 42.91C22.21 29.07 18.7 15 17.98 0L70.13 0.08H70.14Z" fill="white"/>
<path d="M55.1199 77.14C47.0699 70.21 40.4299 62.04 34.4199 52.95C51.2599 46.82 64.6499 37.55 76.9499 25.21L77.0299 76.99L55.1199 77.14Z" fill="white"/>
<path d="M191.99 76.82L175.76 76.81L175.75 7.83L191.99 7.81V76.82Z" fill="white"/>
<path d="M596.79 70.37C596.79 72.6 595.04 74.35 592.76 74.35C590.48 74.35 588.7 72.6 588.7 70.37C588.7 68.14 590.5 66.43 592.76 66.43C595.02 66.43 596.79 68.18 596.79 70.37ZM589.71 70.37C589.71 72.12 591.01 73.51 592.78 73.51C594.55 73.51 595.78 72.12 595.78 70.39C595.78 68.66 594.51 67.22 592.76 67.22C591.01 67.22 589.71 68.64 589.71 70.36V70.37ZM592.13 72.43H591.22V68.49C591.58 68.42 592.08 68.37 592.73 68.37C593.47 68.37 593.81 68.49 594.1 68.66C594.32 68.83 594.48 69.14 594.48 69.52C594.48 69.95 594.14 70.29 593.66 70.43V70.48C594.04 70.62 594.26 70.91 594.38 71.44C594.5 72.04 594.57 72.28 594.67 72.42H593.69C593.57 72.28 593.5 71.92 593.38 71.46C593.31 71.03 593.07 70.84 592.56 70.84H592.13V72.42V72.43ZM592.16 70.2H592.59C593.09 70.2 593.5 70.03 593.5 69.62C593.5 69.26 593.24 69.02 592.66 69.02C592.42 69.02 592.25 69.04 592.16 69.07V70.2Z" fill="white"/>
</g>
<defs>
<clipPath id="clip0_7_227">
<rect width="596.79" height="78.22" fill="white"/>
</clipPath>
</defs>
</svg>
