<svg width="500" height="231" viewBox="0 0 500 231" fill="none" xmlns="http://www.w3.org/2000/svg">
<path fill-rule="evenodd" clip-rule="evenodd" d="M249.7 227.701C113.302 227.701 3.30191 177.101 3.30191 115.501C3.30191 55.0015 113.302 3.30192 249.7 3.30192C386.099 3.30192 496.099 55.0015 496.099 115.501C496.099 177.104 386.099 227.701 249.7 227.701ZM249.7 0C112.2 0 0 50.5999 0 115.499C0 181.503 112.2 231 249.7 231C387.204 231 499.401 181.5 499.401 115.499C499.401 50.6027 387.204 0 249.7 0ZM234.299 162.799H240.9V160.603H236.501V159.503H240.9V157.301H236.501V156.201H240.9V154.005H234.299V162.799ZM250.8 162.799V158.398H247.501V159.503H248.601C248.601 160.603 247.501 160.603 247.501 160.603C245.302 160.603 245.302 159.503 245.302 158.401C245.302 157.301 245.302 156.204 246.401 156.204C247.501 156.204 247.501 156.204 248.601 157.304H250.8C250.8 155.107 248.601 154.008 246.401 154.008C244.202 154.008 242.003 156.204 242.003 158.403C242.003 161.705 244.202 162.805 246.401 162.805C247.501 162.805 248.601 162.805 248.601 161.705L249.7 162.805H250.8V162.799ZM252.999 162.799H255.202V160.603H252.999V162.799ZM260.703 154.005V159.506C260.703 161.703 262.899 162.802 265.099 162.802C268.401 162.802 269.5 161.703 269.5 159.506V154.005H266.204V159.506C266.204 160.606 266.204 160.606 265.099 160.606C263.999 160.606 263.999 160.606 263.999 159.506V154.005H260.703ZM270.597 162.799H273.899V160.603H270.597V162.799ZM279.401 157.301H282.702C281.597 155.104 280.5 154.005 278.301 154.005C276.099 154.005 274.999 155.104 274.999 157.301C274.999 160.603 279.401 159.503 279.401 160.603H274.999C274.999 161.703 276.099 162.799 278.301 162.799C280.497 162.799 282.702 162.799 282.702 160.603C282.702 157.301 277.201 157.301 277.201 156.201H279.401V157.301ZM283.802 162.799H285.999V160.603H283.802V162.799ZM291.5 162.799H294.802V160.603H295.902C298.098 160.603 300.303 159.503 300.303 157.301C300.303 155.104 298.101 154.005 295.902 154.005H291.5V162.799ZM300.303 162.799H302.5L303.599 161.7H305.802L306.901 162.799H309.098L305.802 154.002H303.599L300.303 162.799ZM309.098 154.005V156.201H312.4V162.799H314.596V156.201H317.898V154.005H309.098ZM319.001 162.799H321.203V160.603H319.001V162.799ZM335.499 158.401C335.499 156.204 334.399 154.005 331.097 154.005C328.901 154.005 326.701 156.201 326.701 158.401C326.701 161.703 328.898 162.802 331.097 162.802C334.402 162.799 335.499 161.703 335.499 158.401ZM337.704 162.799H339.9V159.503H343.202V158.398H339.9V156.201H344.302V154.005H337.704V162.799ZM345.402 162.799H348.704V159.503H350.9V158.398H348.704V156.201H352V154.005H345.402V162.799ZM353.1 162.799H356.401V160.603H353.1V162.799ZM196.898 122.102C212.3 102.302 203.499 111.1 208.998 105.601H193.599L192.5 107.801C180.4 103.399 166.098 97.9007 137.501 129.8C128.701 140.8 119.9 143.002 112.2 147.398C91.2997 156.201 86.8981 135.299 108.898 108.9C150.7 58.3006 167.198 68.2006 159.5 81.3997C152.899 93.4991 140.8 105.601 135.299 107.801C133.099 113.302 155.099 114.399 180.4 88.0007H176.001C180.4 72.6022 181.5 49.503 136.398 61.5996C119.9 65.9984 82.4994 95.6985 73.699 126.501C70.3971 140.797 75.8984 188.101 139.7 143.002C141.9 152.897 159.5 149.6 172.699 137.501C167.198 149.6 182.599 152.897 196.898 143.002L176.001 169.398H190.3L213.399 138.601C213.399 145.199 217.798 155.102 251.9 138.601C249.7 148.501 263.999 154.002 285.999 138.601C282.702 146.298 292.597 155.102 318.998 138.601C315.702 149.6 335.499 158.398 360.8 130.897C361.9 129.797 361.9 129.797 365.202 129.797C367.398 130.897 360.8 148.501 377.301 148.501C389.401 148.501 397.104 142.999 402.597 138.601L405.899 123.199C398.201 129.797 391.597 133.099 389.398 134.199C384.996 134.199 379.498 136.396 381.7 121C391.594 111.097 416.899 97.8979 420.2 69.2974C422.397 57.198 389.398 67.0981 371.8 108.898C370.7 112.2 369.598 116.598 366.299 119.903C362.997 122.1 364.096 116.601 364.096 110C364.096 104.499 348.701 97.8979 334.399 108.898C321.2 118.798 321.2 125.396 315.702 132C309.098 135.296 290.4 142.999 314.596 112.197H323.399L331.097 104.499H320.098L334.399 86.8981H317.898L304.699 104.499H294.799L287.095 113.299H296.996C290.397 129.797 241.997 158.398 290.397 104.499H274.996C259.595 125.396 239.798 138.598 250.797 125.396C265.096 108.898 257.398 98.9976 239.798 106.698V104.499H226.596C223.297 107.798 208.995 125.396 202.397 129.797C195.801 135.301 181.5 140.8 196.898 122.102ZM215.599 93.502C214.499 94.6017 213.399 94.6017 213.399 95.7014V101.203L215.599 93.502ZM221.1 92.4023C220 92.4023 218.901 92.4023 218.901 93.502V99.0032L221.1 92.4023ZM228.801 90.2029C226.601 90.2029 226.601 91.3026 226.601 92.4023V97.9007L228.801 90.2029ZM236.501 89.1004C234.302 89.1004 234.302 89.1004 234.302 91.2997V96.801L236.501 89.1004ZM245.302 88.0007C243.102 88.0007 243.102 89.1004 243.102 90.2001V95.7014L245.302 88.0007ZM254.099 88.0007C251.903 86.901 250.8 88.0007 250.8 89.1004V94.6017L254.099 88.0007ZM262.9 88.0007C260.703 88.0007 260.703 88.0007 260.703 90.2001V94.5988L262.9 88.0007ZM271.703 88.0007C269.5 88.0007 269.5 88.0007 269.5 90.2001V94.5988L271.703 88.0007ZM280.5 89.1004C277.204 89.1004 277.204 89.1004 277.204 90.2001V94.5988L280.5 89.1004ZM287.098 90.2029C284.902 89.1032 284.902 89.1032 284.902 91.3026V96.8039L287.098 90.2029ZM294.802 91.3026C292.6 91.3026 292.6 91.3026 292.6 92.4023V97.9007L294.802 91.3026ZM300.303 93.502C298.101 93.502 298.101 93.502 298.101 94.6017V99.0004L300.303 93.502ZM289.301 33.002L287.098 37.4036L291.5 36.304L294.802 38.5033L293.702 34.1046L298.098 31.9052L293.702 30.8055L292.597 26.4039L290.4 30.8055L285.999 29.7058L289.301 33.002ZM330 44.0018L327.804 47.3008L332.205 46.2011L334.402 49.503L335.502 45.1014L338.804 44.0018L335.502 42.8992V38.5005L332.205 41.8024L327.804 39.603L330 44.0018ZM213.402 34.1017L212.302 38.5005L215.602 35.1986L220.003 36.3011L217.804 32.9992L220.003 29.7001L215.602 30.7998L213.402 26.3982V30.7998L209.001 31.8995L213.402 34.1017ZM305.802 94.6017C305.802 95.7013 306.901 95.7013 306.901 93.502C306.901 92.4023 306.901 92.4023 308.001 91.3026C309.101 88.0007 305.804 88.0007 304.705 85.8013V84.7016C304.705 81.3997 299.203 80.3028 299.203 80.3028C299.203 79.2032 298.098 77.0038 298.098 77.0038C296.998 74.8044 295.902 73.7019 293.702 72.6022C292.597 70.4028 292.597 70.4028 291.5 68.2034C289.303 63.8047 284.902 57.2037 272.802 51.7024C269.5 50.6027 269.5 51.7024 268.401 49.503C266.204 47.3037 266.204 47.3037 263.999 46.2011C262.9 45.1014 261.803 45.1015 261.803 44.0018V34.1017C261.803 33.002 262.902 31.9023 261.803 30.8027C260.703 29.703 260.703 27.5008 259.6 26.4011C258.501 25.3014 258.501 24.2017 257.404 23.102C256.307 22.0023 254.102 22.0023 254.102 20.9026V13.2048C254.102 12.1051 253.002 12.1051 253.002 13.2048V20.9026C253.002 22.0023 250.803 22.0023 249.703 23.102C248.604 24.2017 248.604 25.3014 248.604 26.4011H247.504C246.404 27.5008 246.404 28.6004 245.304 29.703C245.304 30.8026 246.404 31.9023 246.404 33.002V45.1014C243.102 46.2011 240.903 47.3008 239.803 49.503C239.803 50.6027 239.803 50.6027 238.704 51.7024C234.302 52.8021 227.701 56.1012 220.003 66.0012C217.804 69.3031 216.701 71.5025 216.701 74.8016C214.502 75.9013 212.302 78.1006 212.302 80.3028C211.203 81.4025 212.302 81.4025 211.203 82.5022C210.1 83.6019 207.901 84.7016 206.801 86.901C207.901 89.1004 204.602 90.2029 204.602 91.3026V93.502C204.602 94.6017 205.701 94.6017 205.701 94.6017C206.801 95.7013 206.801 100.103 206.801 103.402H207.901C209.001 103.402 209.001 103.402 209.001 101.203V96.8039V93.502C211.203 93.502 212.302 92.4023 214.502 91.3026H215.602C223.302 89.1032 232.103 86.901 239.803 86.901C254.102 84.7016 270.6 85.8013 286.001 86.901C290.403 88.0007 292.6 88.0007 295.902 89.1004C297.001 90.2 300.303 91.2997 302.5 91.2997C302.5 91.2997 303.599 92.3994 304.702 92.3994C305.802 93.502 305.802 94.6017 305.802 94.6017ZM153.999 198.004L148.498 190.3C150.7 190.3 152.899 188.104 152.899 184.799C152.899 181.503 149.597 179.298 145.199 179.298H137.501V198.001H143.002V191.397L147.401 198.001L153.999 198.004ZM179.3 183.702H185.901V179.3H173.802V198.004H185.901V193.602H179.3V191.4H184.802V187.004H179.3V183.702ZM221.1 185.899V180.397C220 179.298 217.801 179.298 216.701 179.298C213.402 179.298 210.1 180.397 207.901 181.5C206.801 183.696 205.701 185.896 205.701 189.198C205.701 191.394 206.801 193.599 209.001 195.796C211.203 197.998 213.402 199.098 216.701 199.098C217.801 199.098 218.901 197.998 221.1 197.998V192.497C220 193.596 217.801 193.596 216.701 193.596C213.402 193.596 211.203 192.497 211.203 189.195C211.203 185.893 213.402 183.693 216.701 183.693C217.801 183.702 220 184.802 221.1 185.899ZM263.999 188.104C263.999 182.602 258.498 179.3 252.999 179.3C246.401 179.3 240.9 182.602 240.9 188.104C240.9 194.702 246.401 199.103 252.999 199.103C259.598 199.103 263.999 194.702 263.999 188.104ZM301.4 198.004L294.802 190.3C298.098 190.3 299.203 188.104 299.203 184.799C299.203 181.503 295.902 179.298 292.6 179.298H283.802V198.001H289.303V191.397L294.805 198.001L301.4 198.004ZM320.098 179.3V198.004H327.801C334.399 198.004 338.801 194.702 338.801 189.2C338.801 183.699 334.399 179.3 327.801 179.3H320.098ZM369.598 184.802L372.9 180.4C370.703 179.3 368.498 179.3 366.302 179.3C361.9 179.3 358.598 181.503 358.598 184.802C358.598 189.203 360.8 190.303 364.099 190.303C365.205 191.403 367.401 191.403 367.401 192.505C367.401 193.605 366.302 194.702 365.205 194.702C363.002 194.702 361.903 193.602 360.803 192.505L357.501 196.901C359.703 198.006 363.002 199.103 365.205 199.103C367.401 199.103 369.601 198.004 370.706 196.901C372.902 195.801 372.902 193.605 372.902 192.505C372.902 189.203 370.706 188.104 368.501 187.004H366.304C366.304 185.899 364.102 185.899 364.102 184.802C364.102 183.705 365.207 182.605 366.304 182.605C368.501 182.602 369.598 183.702 369.598 184.802ZM170.5 45.1014V49.503L173.799 46.2011L178.198 47.3008L174.899 42.8992L177.098 39.6002L172.699 40.6999L169.398 37.4008L170.5 41.7995L166.098 43.9989L170.5 45.1014ZM226.601 159.503H227.701C229.9 159.503 229.9 160.603 229.9 161.7V162.799H232.1V160.603C232.1 159.503 232.1 159.503 231 158.401C232.1 158.401 232.1 157.301 232.1 157.301C232.1 155.104 231 154.005 228.801 154.005H224.399V162.802H226.598L226.601 159.503ZM262.9 49.503C260.703 49.503 256.301 48.4005 254.096 48.4005C250.797 48.4005 249.698 48.4005 247.498 49.503C245.299 49.503 245.299 50.6027 243.097 50.6027C243.097 50.6027 241.997 50.6027 243.097 49.503C245.296 47.3037 248.598 46.2011 254.096 46.2011C259.598 46.2011 259.598 47.3008 261.8 47.3008C262.9 48.4005 263.996 48.4005 263.996 49.5002C265.099 49.503 263.999 49.503 262.9 49.503ZM256.301 63.8018V52.8021C256.301 51.7024 254.099 49.5031 256.301 50.6027C256.301 51.7024 257.401 52.8021 258.498 53.9018C260.7 58.3034 260.7 60.5028 261.8 64.9044C261.8 64.9044 262.9 66.0041 261.8 67.1038H257.398C256.301 67.1009 256.301 66.0012 256.301 63.8018ZM258.501 50.6027C259.6 50.6027 259.6 50.6027 260.703 51.7024C261.803 52.8021 261.803 52.8021 263.999 53.9018C263.999 55.0015 263.999 55.0015 265.099 56.1012C268.401 59.4002 268.401 62.7022 270.6 66.0012C270.6 67.1009 270.6 67.1009 269.5 67.1009C267.304 68.2006 267.304 67.1009 265.099 67.1009C265.099 67.1009 265.099 64.9015 263.999 63.8018C262.9 59.4002 261.803 55.0015 259.598 51.7024L258.501 50.6027ZM251.9 51.7024C252.999 51.7024 252.999 49.5031 252.999 51.7024V67.1009H248.601C247.501 67.1009 248.601 66.0012 247.501 66.0012C247.501 66.0012 249.7 59.4002 250.8 55.0015C251.9 53.9018 250.8 53.9018 251.9 51.7024ZM249.7 51.7024C250.8 51.7024 250.8 51.7024 249.7 52.8021C248.601 53.9018 248.601 56.1012 247.501 58.3034C246.401 61.6025 246.401 63.8047 245.302 67.1038C244.202 68.2034 244.202 68.2034 243.102 68.2034H239.803V67.1038C239.803 66.0041 240.903 64.9044 240.903 62.705C242.003 61.6053 242.003 60.5056 243.102 59.4031C244.202 58.3034 244.202 57.2037 245.302 56.104L247.501 53.9046L249.7 51.7024ZM266.204 52.8021C268.401 53.9018 269.5 55.0015 270.6 56.1012C273.902 59.4002 275.002 61.6025 277.204 66.0012C278.304 67.1009 278.304 68.2006 277.204 68.2006H275.002C275.002 68.2006 273.902 68.2006 272.805 67.1009C272.805 66.0012 270.603 61.5996 269.503 58.3006C267.307 53.899 262.905 52.7993 264.002 51.6996C265.099 51.7024 266.204 52.8021 266.204 52.8021ZM245.302 52.8021C245.302 52.8021 247.501 51.7024 246.401 51.7024C246.401 52.8021 244.202 55.0015 244.202 55.0015C242.003 57.2009 239.803 59.4003 238.704 61.6025C237.601 63.8019 236.504 66.0012 236.504 68.2034C236.504 68.2034 236.504 69.3031 235.404 69.3031C233.205 69.3031 232.103 70.4028 232.103 68.2034C233.202 64.9044 235.404 62.7022 237.604 60.5028C238.706 58.3034 239.803 57.2037 240.906 56.104L242.005 55.0043C243.099 53.9018 243.099 53.9018 245.302 52.8021ZM221.1 69.3031C222.2 66.0012 228.801 58.3034 234.302 56.1012C235.402 55.0015 236.501 53.9018 237.601 53.9018C238.704 53.9018 236.501 55.0015 235.402 55.0015L234.302 56.1012C228.801 59.4002 226.601 63.8018 224.402 68.2006C223.302 69.3003 223.302 71.4997 222.202 72.5993C221.103 72.5993 220.003 73.699 220.003 72.5993C220.003 71.4997 221.1 70.4 221.1 69.3031ZM238.701 55.0015C239.8 55.0015 242 52.8021 240.9 53.9018L236.501 58.3034C231 63.8047 229.9 68.2034 229.9 69.3031C228.801 70.4028 227.701 70.4028 226.598 70.4028C225.499 70.4028 226.598 69.3031 226.598 68.2034C227.698 67.1038 227.698 66.0041 228.798 64.9044C229.897 62.705 230.997 60.5028 233.197 59.4031C235.396 58.3034 235.396 57.2037 236.498 56.104C237.601 56.1012 238.701 55.0015 238.701 55.0015ZM274.999 57.2009C273.899 56.1012 270.597 55.0015 271.703 53.899C271.703 53.899 273.899 54.9986 274.999 56.0983C279.401 59.3974 281.597 63.799 283.802 69.3003H280.5C280.5 67.1009 280.5 65.9984 279.401 63.799C278.301 61.5996 277.204 60.4971 276.099 59.3974L274.999 57.2009ZM279.401 58.3034C280.5 58.3034 280.5 59.4031 281.597 59.4031C285.999 63.8047 287.098 64.9044 289.301 69.3031V70.4028H287.098L285.999 69.3031C284.899 67.1038 283.802 63.8018 282.702 62.7021C281.6 61.6025 280.5 59.4002 279.401 58.3034ZM250.8 25.3014C250.8 25.3014 251.9 24.2017 254.099 24.2017C255.205 24.2017 256.301 25.3014 256.301 25.3014V26.4011C254.099 25.3014 252.999 25.3014 250.8 26.4011V25.3014ZM248.601 27.5007C250.8 27.5007 255.205 26.401 257.401 27.5007C258.501 27.5007 259.598 28.6004 258.501 28.6004H248.601C247.501 28.6004 248.601 27.5007 248.601 27.5007ZM258.501 30.8027H250.8H247.501L248.601 29.703C251.9 28.6004 256.301 29.703 258.501 30.8027H259.6C259.598 31.9023 258.501 30.8027 258.501 30.8027ZM251.9 45.1014V31.8995C252.999 31.8995 252.999 32.9992 252.999 32.9992V44.0018C252.999 44.0018 252.999 45.1014 251.9 45.1014ZM256.301 45.1014C255.202 45.1014 255.202 44.0018 255.202 44.0018V32.9992C255.202 32.9992 255.202 31.8995 256.301 31.8995V45.1014ZM248.601 45.1014L247.501 44.0018V34.1017C247.501 33.002 248.601 33.002 248.601 33.002C249.7 33.002 249.7 33.002 249.7 34.1017V44.0018C249.7 44.0018 249.7 45.1014 248.601 45.1014ZM258.501 45.1014V34.1017V33.002C259.6 33.002 259.6 33.002 259.6 34.1017V44.0018C259.598 44.0018 259.598 45.1014 258.501 45.1014ZM255.202 75.9013C261.8 75.9013 273.899 75.9013 283.799 78.1006C290.397 78.1006 299.201 80.3 300.3 82.5022C302.497 85.8013 291.497 80.3028 284.899 79.2003C267.301 77.0009 249.698 77.0009 236.498 79.2003C226.598 80.3 222.197 81.3997 212.297 85.8013C210.097 86.901 212.297 82.5022 221.097 80.3C233.199 77.0038 246.401 75.9013 255.202 75.9013ZM302.5 89.1004C300.303 88.0007 295.902 85.8013 292.6 85.8013C286.001 83.6019 280.5 83.6019 270.6 82.5022C257.401 82.5022 250.803 81.3997 238.704 83.6019C227.701 84.7016 220.003 85.8013 212.302 90.2029C207.904 92.4023 210.103 89.1032 210.103 89.1032C213.405 88.0035 215.604 85.8041 226.604 83.6019C234.305 82.5022 247.504 80.3028 254.102 80.3028C260.706 80.3028 271.706 80.3029 283.805 82.5022C289.306 83.6019 300.306 84.7016 303.602 88.0007C303.599 88.0007 304.702 90.2029 302.5 89.1004ZM226.601 158.401V156.204H228.801C228.801 156.204 229.9 156.204 229.9 157.304L228.801 158.403L226.601 158.401ZM143.002 188.104V182.602C145.202 182.602 147.401 183.702 147.401 185.899C147.401 188.104 145.202 188.104 143.002 188.104ZM304.702 157.301L305.802 159.503H303.599L304.702 157.301ZM330 158.401C330 157.301 330 156.204 331.1 156.204C332.205 156.204 333.302 157.304 333.302 158.401C333.302 159.506 332.203 160.603 331.1 160.603C330 160.603 330 159.503 330 158.401ZM295.902 158.401H294.802V156.204H295.902C295.902 156.204 297.001 156.204 297.001 157.304C297.001 158.403 296.998 158.401 295.902 158.401ZM246.401 188.104C246.401 185.901 249.7 183.702 252.999 183.702C256.301 183.702 258.501 185.899 258.501 188.104C258.501 191.4 256.304 194.702 252.999 194.702C249.7 194.702 246.401 191.4 246.401 188.104ZM234.299 127.604C228.798 133.105 224.399 133.105 222.2 133.105C221.1 132.005 221.1 128.703 228.801 122.105C234.302 116.604 239.8 113.305 240.9 114.405C243.099 116.604 239.8 122.102 234.299 127.604ZM289.301 188.104V182.602H290.4C291.5 182.602 293.702 183.702 293.702 185.899C293.702 188.101 291.5 188.101 290.4 188.101H289.301V188.104ZM334.402 133.102C335.502 124.299 339.903 119.903 346.501 116.601C345.402 125.399 345.402 126.501 348.704 127.601C345.402 132.005 334.402 141.9 334.402 133.102ZM325.599 193.602V183.702H327.801C331.097 183.702 333.302 185.899 333.302 189.203C333.302 192.508 330 193.605 326.704 193.605L325.599 193.602ZM173.799 126.504C164.999 133.102 159.5 136.398 157.298 135.302C156.198 134.202 159.498 127.604 167.198 121.006C172.699 116.604 184.799 111.103 185.899 113.305C187.001 115.501 182.599 118.8 173.799 126.504ZM403.702 81.3997C415.802 69.3003 411.4 80.3 401.5 92.4023C395.999 100.1 394.902 101.203 389.401 105.601C382.803 112.202 393.802 91.3026 403.702 81.3997ZM254.099 70.4C260.703 69.3003 273.902 70.4 282.702 71.4997C289.301 72.5993 292.597 73.699 294.802 75.8984C296.998 79.2003 289.301 75.8984 282.702 74.7987C269.5 72.5994 254.099 71.4968 236.501 74.7987C225.502 75.8984 220 78.0978 217.801 80.3C214.502 81.3997 215.602 77.0009 225.502 73.699C233.199 71.5025 247.501 70.4 254.099 70.4Z" fill="white"/>
</svg>
